<svg width="40" height="40" viewBox="0 0 40 40" fill="none" xmlns="http://www.w3.org/2000/svg">
<rect width="40" height="40" rx="10" fill="#EDEDED"/>
<path d="M20 16.4999C19.0718 16.4999 18.1815 16.8687 17.5251 17.525C16.8688 18.1814 16.5 19.0717 16.5 19.9999C16.5 20.9282 16.8688 21.8184 17.5251 22.4748C18.1815 23.1312 19.0718 23.4999 20 23.4999C20.9283 23.4999 21.8185 23.1312 22.4749 22.4748C23.1313 21.8184 23.5 20.9282 23.5 19.9999C23.5 19.0717 23.1313 18.1814 22.4749 17.525C21.8185 16.8687 20.9283 16.4999 20 16.4999ZM20 14.1666C21.5471 14.1666 23.0308 14.7812 24.1248 15.8751C25.2188 16.9691 25.8333 18.4528 25.8333 19.9999C25.8333 21.547 25.2188 23.0307 24.1248 24.1247C23.0308 25.2187 21.5471 25.8333 20 25.8333C18.4529 25.8333 16.9692 25.2187 15.8752 24.1247C14.7813 23.0307 14.1667 21.547 14.1667 19.9999C14.1667 18.4528 14.7813 16.9691 15.8752 15.8751C16.9692 14.7812 18.4529 14.1666 20 14.1666ZM27.5833 13.8749C27.5833 14.2617 27.4297 14.6326 27.1562 14.9061C26.8827 15.1796 26.5118 15.3333 26.125 15.3333C25.7382 15.3333 25.3673 15.1796 25.0938 14.9061C24.8203 14.6326 24.6667 14.2617 24.6667 13.8749C24.6667 13.4881 24.8203 13.1172 25.0938 12.8437C25.3673 12.5702 25.7382 12.4166 26.125 12.4166C26.5118 12.4166 26.8827 12.5702 27.1562 12.8437C27.4297 13.1172 27.5833 13.4881 27.5833 13.8749ZM20 10.6666C17.1137 10.6666 16.6423 10.6748 15.2995 10.7343C14.3848 10.7774 13.7712 10.8999 13.2018 11.1216C12.6955 11.3176 12.3303 11.5521 11.9418 11.9418C11.5767 12.2946 11.2959 12.7253 11.1205 13.2018C10.8988 13.7734 10.7763 14.3859 10.7343 15.2994C10.6737 16.5874 10.6667 17.0378 10.6667 19.9999C10.6667 22.8863 10.6748 23.3576 10.7343 24.7004C10.7775 25.6139 10.9 26.2288 11.1205 26.7969C11.3188 27.3044 11.5522 27.6696 11.9395 28.0569C12.3327 28.4489 12.6978 28.6834 13.1995 28.8771C13.7758 29.0999 14.3895 29.2236 15.2995 29.2656C16.5875 29.3263 17.0378 29.3333 20 29.3333C22.8863 29.3333 23.3577 29.3251 24.7005 29.2656C25.6128 29.2224 26.2277 29.0999 26.797 28.8794C27.3022 28.6823 27.6697 28.4478 28.057 28.0604C28.4502 27.6673 28.6847 27.3021 28.8783 26.8004C29.1 26.2253 29.2237 25.6104 29.2657 24.7004C29.3263 23.4124 29.3333 22.9621 29.3333 19.9999C29.3333 17.1136 29.3252 16.6423 29.2657 15.2994C29.2225 14.3871 29.1 13.7711 28.8783 13.2018C28.7025 12.7258 28.4223 12.2952 28.0582 11.9418C27.7055 11.5764 27.2748 11.2956 26.7982 11.1204C26.2265 10.8988 25.6128 10.7763 24.7005 10.7343C23.4125 10.6736 22.9622 10.6666 20 10.6666ZM20 8.33325C23.1698 8.33325 23.5653 8.34492 24.809 8.40325C26.0515 8.46159 26.8973 8.65642 27.6417 8.94575C28.4117 9.24209 29.0603 9.64342 29.709 10.2909C30.3023 10.8741 30.7613 11.5796 31.0542 12.3583C31.3423 13.1014 31.5383 13.9484 31.5967 15.1909C31.6515 16.4346 31.6667 16.8301 31.6667 19.9999C31.6667 23.1698 31.655 23.5653 31.5967 24.8089C31.5383 26.0514 31.3423 26.8973 31.0542 27.6416C30.7621 28.4207 30.303 29.1263 29.709 29.7089C29.1256 30.302 28.4202 30.761 27.6417 31.0541C26.8985 31.3423 26.0515 31.5383 24.809 31.5966C23.5653 31.6514 23.1698 31.6666 20 31.6666C16.8302 31.6666 16.4347 31.6549 15.191 31.5966C13.9485 31.5383 13.1027 31.3423 12.3583 31.0541C11.5794 30.7618 10.8738 30.3027 10.291 29.7089C9.69765 29.1258 9.2386 28.4203 8.94584 27.6416C8.65651 26.8984 8.46168 26.0514 8.40334 24.8089C8.34851 23.5653 8.33334 23.1698 8.33334 19.9999C8.33334 16.8301 8.34501 16.4346 8.40334 15.1909C8.46168 13.9473 8.65651 13.1026 8.94584 12.3583C9.23779 11.5791 9.69695 10.8735 10.291 10.2909C10.874 9.69735 11.5795 9.23827 12.3583 8.94575C13.1027 8.65642 13.9473 8.46159 15.191 8.40325C16.4347 8.34842 16.8302 8.33325 20 8.33325Z" fill="black"/>
</svg>
