<svg width="40" height="40" viewBox="0 0 40 40" fill="none" xmlns="http://www.w3.org/2000/svg">
<rect width="40" height="40" rx="10" fill="#EDEDED"/>
<path d="M20 29.3333C22.4754 29.3333 24.8493 28.3499 26.5997 26.5996C28.35 24.8492 29.3333 22.4753 29.3333 19.9999C29.3333 17.5246 28.35 15.1506 26.5997 13.4003C24.8493 11.6499 22.4754 10.6666 20 10.6666C17.5247 10.6666 15.1507 11.6499 13.4003 13.4003C11.65 15.1506 10.6667 17.5246 10.6667 19.9999C10.6667 22.4753 11.65 24.8492 13.4003 26.5996C15.1507 28.3499 17.5247 29.3333 20 29.3333ZM20 31.6666C13.5565 31.6666 8.33334 26.4434 8.33334 19.9999C8.33334 13.5564 13.5565 8.33325 20 8.33325C26.4435 8.33325 31.6667 13.5564 31.6667 19.9999C31.6667 26.4434 26.4435 31.6666 20 31.6666ZM16.3717 21.3649L13.4573 20.4561C12.8273 20.2636 12.8238 19.8296 13.5985 19.5181L24.9537 15.1314C25.6128 14.8631 25.9862 15.2026 25.7727 16.0531L23.8395 25.1764C23.7042 25.8263 23.3133 25.9814 22.7708 25.6816L19.7947 23.4789L18.4075 24.8183C18.2652 24.9559 18.1497 25.0738 17.9303 25.1029C17.7122 25.1333 17.5325 25.0679 17.4007 24.7063L16.3857 21.3568L16.3717 21.3661V21.3649Z" fill="black"/>
</svg>
