<svg width="40" height="40" viewBox="0 0 40 40" fill="none" xmlns="http://www.w3.org/2000/svg">
<rect width="40" height="40" rx="10" fill="#EDEDED"/>
<path d="M28.8736 14.1609C28.785 13.8132 28.533 13.5507 28.2448 13.4702C27.735 13.3267 25.25 13.0001 20 13.0001C14.75 13.0001 12.2673 13.3267 11.7528 13.4702C11.4681 13.5496 11.2161 13.8121 11.1263 14.1609C10.9991 14.6556 10.6666 16.7287 10.6666 20.0001C10.6666 23.2714 10.9991 25.3434 11.1263 25.8404C11.215 26.1869 11.467 26.4494 11.754 26.5287C12.2673 26.6734 14.75 27.0001 20 27.0001C25.25 27.0001 27.7338 26.6734 28.2471 26.5299C28.5318 26.4506 28.7838 26.1881 28.8736 25.8392C29.0008 25.3446 29.3333 23.2667 29.3333 20.0001C29.3333 16.7334 29.0008 14.6567 28.8736 14.1609ZM31.1335 13.5811C31.6666 15.6601 31.6666 20.0001 31.6666 20.0001C31.6666 20.0001 31.6666 24.3401 31.1335 26.4191C30.8371 27.5683 29.9703 28.4724 28.8725 28.7781C26.8786 29.3334 20 29.3334 20 29.3334C20 29.3334 13.1248 29.3334 11.1275 28.7781C10.025 28.4677 9.15931 27.5648 8.86648 26.4191C8.33331 24.3401 8.33331 20.0001 8.33331 20.0001C8.33331 20.0001 8.33331 15.6601 8.86648 13.5811C9.16281 12.4319 10.0296 11.5277 11.1275 11.2221C13.1248 10.6667 20 10.6667 20 10.6667C20 10.6667 26.8786 10.6667 28.8725 11.2221C29.975 11.5324 30.8406 12.4354 31.1335 13.5811ZM17.6666 24.0834V15.9167L24.6666 20.0001L17.6666 24.0834Z" fill="black"/>
</svg>
